<?xml version="1.0" standalone="no"?>
<!DOCTYPE svg PUBLIC "-//W3C//DTD SVG 20010904//EN"
 "http://www.w3.org/TR/2001/REC-SVG-20010904/DTD/svg10.dtd">
<svg version="1.0" xmlns="http://www.w3.org/2000/svg"
 width="192.000000pt" height="192.000000pt" viewBox="0 0 192.000000 192.000000"
 preserveAspectRatio="xMidYMid meet">

<g transform="translate(0.000000,192.000000) scale(0.100000,-0.100000)"
fill="#0052a1" stroke="none">
<path d="M450 1753 c-69 -46 -109 -101 -124 -175 -4 -16 -25 -40 -55 -62 -78
-58 -151 -144 -190 -226 -31 -64 -36 -86 -39 -165 -7 -145 39 -282 139 -417
l43 -58 248 0 248 0 15 -23 c30 -46 100 -60 155 -32 43 22 60 53 60 108 0 42
-5 54 -34 83 -28 28 -41 34 -77 34 -54 0 -101 -27 -119 -69 l-12 -31 -224 0
-223 0 -43 62 c-23 35 -56 97 -72 138 -26 66 -30 88 -31 175 0 94 2 105 34
170 23 47 56 91 103 137 72 71 88 80 88 50 0 -29 58 -109 94 -132 32 -19 49
-20 364 -20 l330 0 36 -40 c19 -22 38 -51 42 -65 11 -44 -2 -109 -30 -152
l-27 -40 -179 -8 c-99 -4 -226 -4 -284 0 -96 7 -105 9 -115 31 -14 31 -68 64
-106 64 -71 0 -134 -76 -120 -146 7 -42 54 -89 95 -97 39 -8 104 17 124 48
l16 24 296 3 296 3 39 45 c22 25 46 64 55 87 19 49 19 49 223 52 81 1 149 6
153 10 4 4 16 31 27 61 l18 55 41 -44 c23 -24 49 -63 58 -87 32 -84 3 -206
-75 -311 l-31 -43 -118 0 c-138 0 -199 -15 -256 -62 -59 -49 -76 -95 -76 -214
l0 -102 -40 -40 c-35 -35 -40 -45 -40 -85 0 -83 79 -142 155 -117 86 28 113
127 54 195 -17 19 -37 35 -45 35 -11 0 -14 21 -14 98 0 119 15 156 80 192 41
23 59 25 192 30 l148 5 41 55 c71 93 102 172 107 267 4 78 2 88 -27 148 -21
42 -50 81 -86 112 -45 41 -55 56 -61 93 -14 94 -65 155 -154 187 -36 13 -52
25 -63 48 -15 31 -68 65 -101 65 -35 0 -86 -30 -106 -62 -25 -42 -25 -84 0
-126 44 -71 132 -80 193 -17 l33 34 42 -19 c65 -29 84 -69 79 -160 -2 -41 -9
-87 -15 -102 l-12 -28 -155 0 c-133 0 -155 2 -155 15 0 30 -39 91 -84 133
l-46 42 -333 0 -333 0 -26 28 c-83 88 -78 218 12 282 26 19 43 20 260 20 188
0 236 -3 261 -15 l30 -16 -36 -33 c-29 -28 -35 -40 -35 -75 0 -53 22 -96 60
-116 84 -43 180 13 180 105 0 43 -25 87 -59 104 -15 8 -39 30 -54 49 -48 64
-66 67 -349 67 -219 0 -257 -2 -278 -17z m654 -169 c21 -20 20 -43 -1 -66 -20
-22 -46 -23 -67 -2 -31 30 -9 84 34 84 10 0 26 -7 34 -16z m304 -16 c32 -32
-5 -92 -49 -81 -29 8 -44 45 -30 72 13 23 59 29 79 9z m-917 -558 c22 -12 26
-59 7 -78 -19 -19 -55 -14 -72 9 -16 23 -12 47 12 67 19 15 28 15 53 2z m370
-270 c36 -20 14 -90 -28 -90 -21 0 -53 29 -53 48 0 20 29 52 47 52 8 0 23 -5
34 -10z m440 -459 c20 -16 22 -23 14 -47 -18 -52 -95 -42 -95 12 0 20 32 54
51 54 4 0 17 -9 30 -19z"/>
</g>
</svg>
